<?xml version="1.0" standalone="no"?>
<!DOCTYPE svg PUBLIC "-//W3C//DTD SVG 20010904//EN"
 "http://www.w3.org/TR/2001/REC-SVG-20010904/DTD/svg10.dtd">
<svg version="1.0" xmlns="http://www.w3.org/2000/svg"
 width="1000.000000pt" height="1000.000000pt" viewBox="0 0 1000.000000 1000.000000"
 preserveAspectRatio="xMidYMid meet">
<metadata>
Created by potrace 1.11, written by Peter Selinger 2001-2013
</metadata>
<g transform="translate(0.000000,1000.000000) scale(0.100000,-0.100000)"
fill="#000000" stroke="none">
<path d="M1 7488 l1 -2513 359 -310 c197 -170 372 -321 389 -334 l30 -24 33
27 c114 93 173 133 262 177 339 167 730 138 1051 -80 l73 -50 220 195 c122
107 221 199 221 204 0 4 -34 56 -75 115 -266 380 -431 801 -507 1294 -31 197
-31 615 0 812 76 493 241 914 507 1294 42 59 100 137 130 173 30 37 55 69 54
72 0 3 -388 332 -862 732 l-862 727 -512 1 -513 0 1 -2512z"/>
<path d="M1261 9996 c2 -2 362 -306 798 -675 l795 -671 85 83 c876 849 2193
1075 3304 567 1301 -595 1995 -2041 1646 -3434 -11 -43 -18 -81 -15 -84 4 -4
1968 -533 2099 -566 l27 -6 0 2395 0 2395 -4372 0 c-2404 0 -4369 -2 -4367 -4z"/>
<path d="M4757 9460 c-578 -56 -1104 -268 -1552 -625 -128 -102 -338 -312
-440 -440 -325 -408 -525 -867 -606 -1396 -33 -209 -33 -599 0 -808 53 -348
138 -611 293 -914 222 -432 563 -812 975 -1083 349 -231 736 -378 1174 -445
209 -33 599 -33 808 0 350 54 614 139 917 295 436 225 807 559 1080 973 231
350 377 735 445 1174 33 209 33 599 0 808 -53 347 -141 618 -295 917 -139 269
-304 494 -520 709 -448 447 -992 720 -1622 815 -157 24 -509 34 -657 20z
m2148 -970 l100 -100 -800 -800 -800 -800 -192 2 -192 3 788 790 c434 435 787
793 784 798 -2 4 -336 7 -741 7 l-737 0 -850 -850 -850 -850 1694 0 1694 0
101 -100 101 -100 -950 -950 -950 -950 -945 0 -945 0 -100 100 -100 100 800
800 800 800 187 0 c104 0 188 -3 188 -8 0 -4 -353 -360 -784 -791 -432 -432
-783 -788 -780 -793 3 -4 339 -8 747 -8 l742 0 842 843 c464 463 843 845 843
850 0 4 -763 7 -1695 7 l-1695 0 -95 97 c-52 53 -94 98 -92 99 1 1 429 430
950 953 l948 951 942 0 942 0 100 -100z"/>
<path d="M7785 5537 c-203 -548 -605 -1057 -1105 -1399 -426 -292 -904 -460
-1448 -509 -70 -6 -128 -12 -130 -13 -1 -2 1 -127 4 -278 l7 -275 86 -7 c438
-34 817 -258 1059 -627 32 -48 62 -95 67 -104 9 -16 65 9 525 228 l515 245 -5
34 c-3 18 -5 74 -4 123 1 230 148 430 373 507 94 32 248 32 343 0 318 -110
467 -468 318 -767 l-40 -80 278 -280 c153 -154 524 -529 825 -833 l547 -553
-2 2053 -3 2053 -990 265 c-544 146 -1033 277 -1086 292 l-97 26 -37 -101z"/>
<path d="M0 2479 l1 -2304 539 1234 c297 679 539 1235 538 1236 -2 1 -30 16
-63 35 -335 185 -544 569 -522 954 10 172 67 351 158 499 17 27 29 52 27 56
-2 5 -124 113 -273 241 -148 128 -300 260 -337 293 l-68 59 0 -2303z"/>
<path d="M2526 4470 c-119 -105 -216 -193 -216 -196 0 -3 23 -35 51 -72 28
-37 73 -112 100 -167 283 -573 -19 -1265 -632 -1449 -175 -52 -364 -58 -532
-18 l-78 19 -13 -31 c-7 -17 -258 -589 -556 -1271 -298 -682 -546 -1250 -551
-1262 l-9 -23 1379 0 1378 0 559 446 c307 245 560 450 562 454 2 5 -13 34 -32
64 -81 126 -143 284 -177 448 -154 750 349 1491 1104 1624 l97 18 0 80 c0 45
-3 172 -7 282 l-6 202 -111 7 c-758 47 -1457 370 -1979 916 l-115 119 -216
-190z"/>
<path d="M1368 4504 c-508 -92 -851 -576 -763 -1078 70 -400 371 -701 771
-771 447 -78 894 189 1043 622 146 429 -40 907 -440 1127 -182 100 -408 137
-611 100z"/>
<path d="M7795 3376 c-83 -21 -147 -57 -210 -121 -178 -178 -178 -452 0 -630
258 -258 695 -117 757 245 53 309 -242 582 -547 506z"/>
<path d="M4990 2954 c-188 -23 -316 -61 -464 -137 -302 -154 -532 -425 -635
-749 -43 -135 -55 -220 -55 -383 0 -163 12 -248 55 -383 81 -254 244 -482 457
-640 150 -111 366 -204 544 -234 94 -15 332 -15 426 0 244 41 509 178 687 357
179 178 316 443 357 687 15 94 15 332 0 426 -41 244 -178 509 -357 687 -176
176 -443 316 -676 355 -72 12 -286 20 -339 14z"/>
<path d="M6903 2413 l-511 -245 19 -57 c46 -132 63 -248 63 -426 0 -138 -4
-189 -22 -273 -60 -275 -183 -503 -377 -697 -194 -194 -422 -317 -697 -377
-148 -32 -399 -31 -548 1 -264 57 -487 175 -684 363 -48 46 -84 74 -91 69 -5
-5 -226 -180 -489 -390 l-479 -381 3456 0 3457 0 0 368 0 367 -877 887 -877
887 -31 -20 c-165 -111 -376 -128 -551 -44 -77 37 -178 122 -214 181 -12 19
-25 34 -28 33 -4 0 -237 -111 -519 -246z"/>
</g>
</svg>
