<?xml version="1.0" standalone="no"?>
<!DOCTYPE svg PUBLIC "-//W3C//DTD SVG 20010904//EN"
 "http://www.w3.org/TR/2001/REC-SVG-20010904/DTD/svg10.dtd">
<svg version="1.0" xmlns="http://www.w3.org/2000/svg"
 width="1000.000000pt" height="1000.000000pt" viewBox="0 0 1000.000000 1000.000000"
 preserveAspectRatio="xMidYMid meet">
<metadata>
Created by potrace 1.14, written by Peter Selinger 2001-2017
</metadata>
<g transform="translate(0.000000,1000.000000) scale(0.100000,-0.100000)"
fill="#000000" stroke="none">
<path d="M1350 9994 c-240 -37 -370 -77 -539 -164 -411 -213 -701 -605 -787
-1065 -18 -97 -19 -227 -19 -3765 0 -3538 1 -3668 19 -3765 115 -617 593
-1096 1210 -1213 85 -16 325 -17 3766 -17 3441 0 3681 1 3766 17 544 103 988
492 1159 1012 76 232 69 -147 73 3906 2 2632 0 3661 -8 3730 -76 650 -544
1157 -1199 1303 l-96 21 -3660 2 c-2013 1 -3671 0 -3685 -2z m6307 -2146 l393
-393 0 -210 0 -210 -397 -397 -398 -398 -355 0 -355 0 503 503 502 502 -248
248 -247 247 -1035 0 -1035 0 -1000 -1000 -1000 -1000 250 -250 250 -250 1630
0 1630 0 397 -397 398 -398 0 -215 0 -215 -1137 -1137 -1138 -1138 -1255 0
-1255 0 -392 392 -393 393 0 210 0 210 397 397 398 398 355 0 355 0 -503 -503
-502 -502 248 -248 247 -247 1035 0 1035 0 1000 1000 1000 1000 -250 250 -250
250 -1630 0 -1630 0 -397 397 -398 398 0 215 0 215 1137 1137 1138 1138 1255
0 1255 0 392 -392z"/>
</g>
</svg>
